<svg xmlns="http://www.w3.org/2000/svg" viewBox="0 0 32 32" width="32" height="32">
  <defs>
    <linearGradient id="stemGradient" x1="0%" y1="0%" x2="100%" y2="100%">
      <stop offset="0%" style="stop-color:#16a34a;stop-opacity:1" />
      <stop offset="100%" style="stop-color:#15803d;stop-opacity:1" />
    </linearGradient>
  </defs>
  <!-- Background -->
  <rect width="32" height="32" fill="transparent"/>
  
  <!-- Plant stem -->
  <path d="M16 28 Q15 25, 15 22 Q15 19, 16 16" stroke="url(#stemGradient)" stroke-width="3" fill="none" stroke-linecap="round"/>
  
  <!-- Left leaf -->
  <path d="M15 20 Q10 18, 8 14 Q10 12, 15 16" fill="#22c55e"/>
  
  <!-- Right leaf -->
  <path d="M17 18 Q22 16, 24 12 Q22 10, 17 14" fill="#16a34a"/>
  
  <!-- Water drops -->
  <ellipse cx="12" cy="8" rx="1.5" ry="2" fill="#3b82f6"/>
  <ellipse cx="16" cy="5" rx="1" ry="1.5" fill="#60a5fa"/>
  <ellipse cx="20" cy="7" rx="1.2" ry="1.8" fill="#3b82f6"/>
  <ellipse cx="18" cy="10" rx="0.8" ry="1.2" fill="#60a5fa"/>
  
  <!-- Small water drops -->
  <circle cx="14" cy="11" r="0.6" fill="#93c5fd"/>
  <circle cx="22" cy="9" r="0.5" fill="#93c5fd"/>
</svg>